<?xml version="1.0" encoding="utf-8"?>
<!-- Generator: Adobe Illustrator 27.0.1, SVG Export Plug-In . SVG Version: 6.00 Build 0)  -->
<svg version="1.1" id="图层_1" xmlns="http://www.w3.org/2000/svg" xmlns:xlink="http://www.w3.org/1999/xlink" x="0px" y="0px"
	 viewBox="0 0 562.7 552.6" style="enable-background:new 0 0 562.7 552.6;" xml:space="preserve">
<style type="text/css">
	.st0{fill:#AAAAAA;}
	.st1{font-family:'PingFang-SC-Bold';}
	.st2{font-size:103.9924px;}
	.st3{font-size:57.3411px;}
</style>
<g id="图层_2_00000085252692377479896100000008740264913346112943_">
	<g id="图层_1-2">
		<path class="st0" d="M157.6,156.8c64.2-26,103.2,17.7,145.7,51.8c25.4,20.4,47.2,45.9,79,57.6c20.6,7.5,32.1,1,42.7-22.4
			c6.5-14.2,11.4-29.2,14.5-44.5c2.9,34.6-13.9,77.4-42.1,105.2c-62.8,61.9-159.9,71.5-227.1,22.9c-73.7-53.2-89.6-140.2-59.7-205.6
			C153.9,26.7,240,7.4,306.5,19.3c41.5,7.4,73.9,30,98.4,64.3C366,47.2,320.3,33.9,268.1,42c-5.9,0.9-11.5,3.4-17,6.5
			c16.3,0.6,31.8,2.8,46.8,9c33.7,13.8,52.5,45.6,44.5,80.8c-4.6,20.6-20,35.3-35,49.2c-4.2,3.9-10.6,1.9-15.5-2.3
			c-10.3-8.9-21-17.4-32.4-26.8c8.6-7.5,15.7-13.7,22.8-19.9c15.1-13.4,14.3-37.4-1.2-50.3c-15.2-12.7-33-18.3-52.3-19
			c-24.7-0.9-51.6,22.8-62.1,52.2C162.6,133.1,157.7,144.4,157.6,156.8z M370.5,300.5c-4.7-0.4-6.9-0.6-9-0.8
			c-15.6-0.9-30.8-5.5-44.3-13.3c-29.4-17.1-49.9-43.5-72-68.2c-22.4-25.1-44.2-51.4-83.6-45.4c-3.9,0.6-6.7,1-6.8,5.9
			c-0.1,17.8,2.8,35.3,10,51.3c22.5,49.7,61.1,79.7,115.4,87.1C310.7,321.3,340.2,315.5,370.5,300.5z"/>
	</g>
</g>
<g id="图层_2_00000013874203282174216650000010528863945279452040_">
	<g id="图层_1-2_00000074417679645507002310000000260213960892718251_">
		<text transform="matrix(1.1251 0 0 1 43.0275 464.0116)" class="st0 st1 st2">如默星空</text>
		<text transform="matrix(1 0 0 1 166.0382 528.039)" class="st0 st1 st3">rumosky</text>
	</g>
</g>
</svg>
