<?xml version="1.0" encoding="utf-8"?>
<!-- Generator: Adobe Illustrator 27.0.1, SVG Export Plug-In . SVG Version: 6.00 Build 0)  -->
<svg version="1.1" id="图层_1" xmlns="http://www.w3.org/2000/svg" xmlns:xlink="http://www.w3.org/1999/xlink" x="0px" y="0px"
	 viewBox="0 0 360 360" style="enable-background:new 0 0 360 360;" xml:space="preserve">
<style type="text/css">
	.st0{fill:#AAAAAA;}
</style>
<g id="图层_2_00000031893629340185673670000013669074602382513328_">
	<g id="图层_1-2">
		<path class="st0" d="M68.3,149.9c64.2-26,103.2,17.7,145.7,51.8c25.4,20.4,47.2,45.9,79,57.6c20.6,7.5,32.1,1,42.7-22.4
			c6.5-14.2,11.4-29.2,14.5-44.5c2.9,34.6-13.9,77.4-42.1,105.2c-62.8,61.9-159.9,71.5-227.1,22.9C7.2,267.2-8.6,180.3,21.2,114.8
			c43.4-95,129.5-114.4,196-102.4c41.5,7.4,73.9,30,98.4,64.3C276.7,40.2,231,26.9,178.9,35.1c-5.9,0.9-11.5,3.4-17,6.5
			c16.3,0.6,31.8,2.8,46.8,9c33.7,13.8,52.4,45.6,44.6,80.8c-4.6,20.6-20,35.3-35,49.2c-4.1,3.9-10.6,1.9-15.5-2.3
			c-10.3-8.9-21-17.4-32.4-26.8c8.6-7.5,15.7-13.7,22.8-19.9c15.1-13.4,14.3-37.4-1.2-50.3c-15.2-12.7-33-18.3-52.3-19
			C114.9,61.4,88,85,77.6,114.4C73.4,126.1,68.4,137.5,68.3,149.9z M281.2,293.6c-4.7-0.4-6.9-0.6-9-0.8
			c-15.6-0.9-30.8-5.5-44.3-13.3c-29.4-17.1-49.9-43.5-72-68.2c-22.4-25.1-44.2-51.4-83.6-45.4c-3.8,0.6-6.7,1-6.8,5.9
			c-0.1,17.8,2.7,35.3,10,51.3c22.4,49.7,61,79.7,115.3,87.2C221.5,314.4,251,308.5,281.2,293.6z"/>
	</g>
</g>
</svg>
