<?xml version="1.0" encoding="utf-8"?>
<!-- Generator: Adobe Illustrator 27.0.1, SVG Export Plug-In . SVG Version: 6.00 Build 0)  -->
<svg version="1.1" id="图层_1" xmlns="http://www.w3.org/2000/svg" xmlns:xlink="http://www.w3.org/1999/xlink" x="0px" y="0px"
	 viewBox="0 0 360 360" style="enable-background:new 0 0 360 360;" xml:space="preserve">
<style type="text/css">
	.st0{fill:#555555;}
</style>
<g id="图层_2_00000100354741763562481670000012224908653540647089_">
	<g id="图层_1-2">
		<path class="st0" d="M69.5,149.7c64.2-26,103.2,17.7,145.7,51.8c25.4,20.4,47.2,45.9,79,57.6c20.6,7.5,32.1,1,42.7-22.4
			c6.5-14.2,11.4-29.2,14.5-44.5c2.9,34.6-13.9,77.4-42.1,105.2c-62.8,61.8-159.9,71.5-227.1,22.9C8.5,267-7.4,180,22.5,114.6
			C65.9,19.5,152,0.2,218.5,12.1c41.5,7.4,73.9,30,98.4,64.3C278,40,232.3,26.7,180.1,34.8c-5.9,0.9-11.5,3.4-17,6.5
			c16.3,0.6,31.8,2.8,46.8,9c33.7,13.8,52.4,45.6,44.6,80.8c-4.6,20.6-20,35.3-35,49.2c-4.1,3.9-10.6,1.9-15.5-2.3
			c-10.3-8.9-21-17.4-32.4-26.8c8.6-7.5,15.7-13.7,22.8-19.9C209.5,118,208.7,94,193.2,81c-15.2-12.7-33-18.3-52.3-19
			c-24.7-0.9-51.6,22.7-62.1,52.1C74.7,125.9,69.7,137.2,69.5,149.7z M282.5,293.3c-4.7-0.4-6.9-0.6-9-0.8
			c-15.6-0.9-30.8-5.5-44.3-13.3c-29.4-17.1-49.9-43.5-72-68.2c-22.4-25.1-44.2-51.4-83.6-45.4c-3.8,0.6-6.7,1-6.8,5.9
			c-0.1,17.8,2.7,35.3,10,51.3c22.4,49.7,61,79.7,115.3,87.2C222.7,314.2,252.3,308.3,282.5,293.3z"/>
	</g>
</g>
</svg>
